<svg xmlns="http://www.w3.org/2000/svg" xmlns:xlink="http://www.w3.org/1999/xlink" width="305.865" height="109.805" viewBox="0 0 305.865 109.805">
  <defs>
    <linearGradient id="linear-gradient" y1="0.5" x2="1" y2="0.5" gradientUnits="objectBoundingBox">
      <stop offset="0.234" stop-color="#8a272d"/>
      <stop offset="0.668" stop-color="#d71920"/>
    </linearGradient>
  </defs>
  <g id="Group_973" data-name="Group 973" transform="translate(-760.135 -1003.531)">
    <g id="Group_651" data-name="Group 651" transform="translate(818.668 1004.763)">
      <g id="Group_647" data-name="Group 647" transform="translate(206.009 8.06)">
        <g id="Group_640" data-name="Group 640" transform="translate(0 0)">
          <path id="Path_709" data-name="Path 709" d="M752.189,223.681H721v-23h41.324Z" transform="translate(-721 -200.679)" fill="url(#linear-gradient)"/>
          <g id="zł" transform="translate(18.644 4.414)" style="isolation: isolate">
            <g id="Group_310" data-name="Group 310" transform="translate(0 0)" style="isolation: isolate">
              <path id="Path_583" data-name="Path 583" d="M764.075,217.426a1.22,1.22,0,0,1-.093.472,1.742,1.742,0,0,1-.217.388l-3.353,4.43H764V224.5h-6.351v-.976a1.1,1.1,0,0,1,.082-.368,1.713,1.713,0,0,1,.229-.422l3.384-4.484h-3.477v-1.781h6.211Z" transform="translate(-757.647 -212.903)" fill="#fff"/>
              <path id="Path_584" data-name="Path 584" d="M775.656,209.4v4.229l1.162-.457v1.348a.48.48,0,0,1-.309.48l-.852.356v5.638h-2.4v-4.832l-1.161.449v-1.394a.419.419,0,0,1,.279-.418l.883-.364V209.4Z" transform="translate(-764.813 -209.396)" fill="#fff"/>
            </g>
          </g>
        </g>
      </g>
    </g>
    <path id="Path_774" data-name="Path 774" d="M77.248-16.464V0h-61V-16.464h20.58V-70.486q0-2.058.074-4.153t.221-4.226l-12.2,10.143a7.164,7.164,0,0,1-3.2,1.507,8.667,8.667,0,0,1-2.977,0,6.985,6.985,0,0,1-2.5-.955A5.593,5.593,0,0,1,14.627-69.6l-7.2-9.555,33.369-28H59.608v90.7Zm36.235-52.92a51.53,51.53,0,0,1,5.807-.808q2.793-.221,5.439-.221a40.166,40.166,0,0,1,14.92,2.573,31.458,31.458,0,0,1,10.878,7.019,29.146,29.146,0,0,1,6.652,10.437,36.3,36.3,0,0,1,2.242,12.826,39.316,39.316,0,0,1-3.05,15.692,36.476,36.476,0,0,1-8.489,12.238,38.145,38.145,0,0,1-12.973,7.975,46.575,46.575,0,0,1-16.5,2.83,43.845,43.845,0,0,1-9.959-1.1A47.983,47.983,0,0,1,99.556-2.9,47.578,47.578,0,0,1,91.875-7.24a50.774,50.774,0,0,1-6.395-5.255L92.536-21.9a7.672,7.672,0,0,1,2.573-2.242,6.7,6.7,0,0,1,3.16-.772,7.723,7.723,0,0,1,4.153,1.213q1.948,1.213,4.263,2.646a31.719,31.719,0,0,0,5.4,2.609,21.609,21.609,0,0,0,7.644,1.176,18.338,18.338,0,0,0,7.791-1.507,13.985,13.985,0,0,0,5.255-4.116,16.826,16.826,0,0,0,2.94-6.1,29.22,29.22,0,0,0,.919-7.46q0-7.791-4.41-11.87t-12.5-4.079a38.223,38.223,0,0,0-14.112,2.719L91.507-53.508l9.114-53.582h54.831v9.408a11.792,11.792,0,0,1-.735,4.263,8.675,8.675,0,0,1-2.315,3.344,10.626,10.626,0,0,1-4.153,2.205,21.659,21.659,0,0,1-6.174.772H116.5Zm130.536,15.8a87.088,87.088,0,0,1-3.013,24.328A49.933,49.933,0,0,1,232.664-12.2,33.643,33.643,0,0,1,220.022-2.132a37.985,37.985,0,0,1-15.839,3.308,37.485,37.485,0,0,1-15.766-3.308A33.5,33.5,0,0,1,175.885-12.2a49.864,49.864,0,0,1-8.269-17.052,88.1,88.1,0,0,1-2.977-24.328,88.1,88.1,0,0,1,2.977-24.328,49.864,49.864,0,0,1,8.269-17.052,33.16,33.16,0,0,1,12.532-10.033,37.844,37.844,0,0,1,15.766-3.271,38.349,38.349,0,0,1,15.839,3.271,33.3,33.3,0,0,1,12.642,10.033,49.933,49.933,0,0,1,8.342,17.052A87.088,87.088,0,0,1,244.02-53.581Zm-23.52,0a97.066,97.066,0,0,0-1.4-18.191,37.29,37.29,0,0,0-3.712-11.135,13.458,13.458,0,0,0-5.255-5.549,12.93,12.93,0,0,0-5.953-1.507,12.712,12.712,0,0,0-5.917,1.507,13.13,13.13,0,0,0-5.145,5.549,38.261,38.261,0,0,0-3.6,11.135,99.629,99.629,0,0,0-1.36,18.191,99.512,99.512,0,0,0,1.36,18.228,38.774,38.774,0,0,0,3.6,11.135,13.1,13.1,0,0,0,5.145,5.586,12.712,12.712,0,0,0,5.917,1.507,12.93,12.93,0,0,0,5.953-1.507,13.426,13.426,0,0,0,5.255-5.586A37.786,37.786,0,0,0,219.1-35.354,96.952,96.952,0,0,0,220.5-53.581Z" transform="translate(800 1111.796)" fill="#d71920"/>
    <g id="Group_965" data-name="Group 965" transform="translate(403 862)">
      <path id="Path_775" data-name="Path 775" d="M15.414-15.939a4.115,4.115,0,0,0-1.6-1.144,5.064,5.064,0,0,0-1.806-.326,3.836,3.836,0,0,0-1.659.357A3.381,3.381,0,0,0,9.04-15.908a6.1,6.1,0,0,0-.872,2.047,12.72,12.72,0,0,0-.315,3.045,14.1,14.1,0,0,0,.252,2.9,5.97,5.97,0,0,0,.7,1.9A2.731,2.731,0,0,0,9.891-4.977a3.1,3.1,0,0,0,1.407.315A5.625,5.625,0,0,0,12.59-4.8a4.54,4.54,0,0,0,1.06-.388,4.4,4.4,0,0,0,.913-.641,8.71,8.71,0,0,0,.851-.892Zm6.51-15.5V0H17.892a1.531,1.531,0,0,1-1.6-1.092l-.5-1.659a12.766,12.766,0,0,1-1.365,1.26,8.584,8.584,0,0,1-1.543.977A8.163,8.163,0,0,1,11.1.116,9.19,9.19,0,0,1,9.03.336,6.707,6.707,0,0,1,5.88-.42,7.259,7.259,0,0,1,3.381-2.6,11.021,11.021,0,0,1,1.733-6.1a16.981,16.981,0,0,1-.6-4.714,14.7,14.7,0,0,1,.672-4.526,11.1,11.1,0,0,1,1.9-3.612,8.825,8.825,0,0,1,2.951-2.384,8.379,8.379,0,0,1,3.8-.861,7.421,7.421,0,0,1,2.856.483,7.754,7.754,0,0,1,2.1,1.3V-31.437Zm14.448,9.324a12.577,12.577,0,0,1,4.515.777,9.9,9.9,0,0,1,3.5,2.226,10.027,10.027,0,0,1,2.268,3.518,12.69,12.69,0,0,1,.809,4.651,12.919,12.919,0,0,1-.809,4.694A10.1,10.1,0,0,1,44.383-2.7a9.95,9.95,0,0,1-3.5,2.247,12.427,12.427,0,0,1-4.515.788,12.573,12.573,0,0,1-4.547-.788A10.146,10.146,0,0,1,28.3-2.7a9.95,9.95,0,0,1-2.289-3.549,12.92,12.92,0,0,1-.809-4.694,12.69,12.69,0,0,1,.809-4.651A9.882,9.882,0,0,1,28.3-19.11a10.1,10.1,0,0,1,3.528-2.226A12.725,12.725,0,0,1,36.372-22.113Zm0,17.619A3.7,3.7,0,0,0,39.679-6.08,8.769,8.769,0,0,0,40.74-10.9a8.713,8.713,0,0,0-1.061-4.809,3.706,3.706,0,0,0-3.307-1.575,3.8,3.8,0,0,0-3.381,1.575A8.644,8.644,0,0,0,31.92-10.9,8.7,8.7,0,0,0,32.991-6.08,3.789,3.789,0,0,0,36.372-4.494Z" transform="translate(356 251)" fill="#d71920"/>
    </g>
  </g>
</svg>
